<?xml version="1.0" standalone="no"?>
<!DOCTYPE svg PUBLIC "-//W3C//DTD SVG 20010904//EN"
 "http://www.w3.org/TR/2001/REC-SVG-20010904/DTD/svg10.dtd">
<svg version="1.0" xmlns="http://www.w3.org/2000/svg"
 width="520.000000pt" height="520.000000pt" viewBox="0 0 520.000000 520.000000"
 preserveAspectRatio="xMidYMid meet">
<metadata>
Created by potrace 1.11, written by Peter Selinger 2001-2013
</metadata>
<g transform="translate(0.000000,520.000000) scale(0.100000,-0.100000)"
fill="#000000" stroke="none">
<path d="M459 4991 l-29 -29 0 -835 c0 -659 3 -836 13 -840 9 -4 9 -6 0 -6 -8
-1 -13 -16 -13 -41 l0 -40 170 0 c163 0 170 1 170 20 0 11 4 20 8 20 12 0 22
-400 22 -825 0 -257 3 -345 13 -358 6 -9 41 -32 77 -53 190 -107 230 -129 280
-156 130 -70 298 -163 332 -184 21 -13 39 -24 42 -24 2 0 77 -40 167 -90 89
-49 165 -90 168 -90 3 0 17 -9 31 -20 14 -11 33 -20 42 -20 9 0 18 -4 20 -8 3
-7 70 -46 333 -190 55 -30 134 -74 175 -97 41 -24 85 -46 98 -50 29 -9 29 -9
522 266 102 57 195 108 207 113 13 6 23 14 23 19 0 4 8 7 18 7 9 0 28 9 42 20
14 11 28 20 32 20 3 0 53 26 110 58 116 66 193 109 288 160 36 19 94 52 130
72 36 21 94 53 130 72 36 20 88 48 115 63 28 15 77 43 111 61 35 20 66 45 72
59 9 19 12 180 12 580 l0 555 170 0 c107 0 170 -4 170 -10 0 -5 5 -10 11 -10
6 0 9 21 7 53 -3 45 -5 52 -23 49 -16 -2 -17 -1 -5 7 8 5 18 7 22 5 4 -3 8
371 8 831 l0 837 -29 29 -29 29 -2102 0 -2102 0 -29 -29z m1358 -717 c68 -22
219 -100 275 -141 59 -43 115 -105 173 -195 l46 -69 52 7 c29 4 55 9 58 13 4
3 17 38 29 76 12 39 40 112 62 163 38 86 43 93 67 90 21 -2 32 -15 56 -64 22
-44 98 -251 100 -270 0 -1 26 -5 57 -8 l58 -7 27 43 c104 163 173 224 353 313
161 81 202 81 253 3 36 -56 34 -89 -9 -178 -57 -118 -81 -189 -104 -305 l-21
-109 43 -63 c24 -34 48 -63 54 -63 31 0 93 98 148 233 11 28 21 37 39 37 26 0
85 -42 119 -85 19 -24 20 -31 10 -59 -7 -18 -12 -38 -12 -44 0 -15 71 -16 124
-1 21 6 49 8 62 5 22 -6 24 -11 24 -71 0 -92 -10 -112 -75 -141 -59 -27 -62
-39 -16 -49 46 -10 55 -27 47 -96 -9 -92 -23 -113 -74 -117 -47 -4 -52 -13
-20 -34 20 -14 21 -18 10 -55 -19 -62 -41 -76 -124 -77 -69 -1 -71 -2 -101
-39 l-31 -37 17 -73 c27 -114 23 -162 -19 -232 -37 -60 -84 -124 -116 -157
-10 -10 -18 -22 -18 -27 0 -13 -268 -282 -303 -305 -24 -17 -41 -46 -17 -31 6
3 10 1 10 -5 0 -6 -8 -9 -18 -6 -12 4 -28 -2 -43 -16 -31 -29 -102 -69 -199
-114 -41 -19 -84 -40 -95 -46 -11 -6 -84 -13 -163 -16 -79 -3 -145 -9 -149
-15 -4 -6 4 -7 21 -3 15 4 45 2 68 -4 29 -8 44 -8 51 -1 6 6 40 11 77 11 44 0
88 9 135 26 39 14 80 28 93 31 12 3 22 9 22 12 0 4 23 18 51 30 28 13 53 30
56 37 3 8 9 12 13 9 4 -2 15 4 25 15 10 11 24 20 31 20 8 0 26 13 41 28 16 16
36 31 46 35 9 3 17 13 17 22 0 8 9 15 20 15 11 0 20 7 20 15 0 9 8 18 18 22
20 8 201 188 257 258 22 27 47 57 56 66 9 9 25 30 35 48 10 17 22 31 26 31 4
0 8 9 8 19 0 11 5 23 10 26 6 3 10 21 10 40 0 19 5 37 10 40 6 3 10 40 10 81
0 61 3 74 16 74 9 0 18 9 21 20 4 16 14 20 44 20 22 0 39 5 39 10 0 6 9 10 20
10 11 0 20 5 20 10 0 6 9 10 20 10 16 0 20 7 20 30 0 22 5 30 18 30 10 1 26
20 41 50 16 33 31 50 43 50 11 0 18 7 18 20 0 13 7 20 20 20 16 0 20 7 20 30
0 23 4 30 20 30 11 0 20 5 20 10 0 6 30 10 70 10 l70 0 0 -528 0 -527 -67 -35
c-38 -19 -69 -38 -71 -42 -2 -5 -7 -8 -12 -8 -4 0 -73 -37 -151 -81 -79 -45
-178 -100 -219 -122 -41 -22 -104 -56 -140 -77 -36 -20 -90 -51 -120 -67 -30
-17 -75 -41 -100 -55 -25 -14 -133 -74 -240 -133 -197 -109 -305 -169 -438
-244 -41 -22 -75 -41 -77 -41 -2 0 -65 35 -141 78 -77 42 -161 88 -189 102
-27 14 -54 29 -60 33 -16 12 -226 130 -365 205 -36 19 -90 49 -120 67 -64 38
-145 82 -250 138 -41 22 -115 63 -165 92 -49 29 -135 76 -190 105 -55 29 -112
61 -128 72 l-27 19 0 313 c0 172 3 408 7 524 l6 212 59 0 c51 0 58 -2 58 -20
0 -11 5 -20 10 -20 6 0 10 -9 10 -20 0 -13 7 -20 20 -20 13 0 20 -7 20 -20 0
-11 5 -20 10 -20 6 0 10 -9 10 -20 0 -11 7 -20 15 -20 22 0 65 -41 65 -62 0
-11 7 -18 20 -18 13 0 20 -7 20 -20 0 -13 7 -20 20 -20 11 0 20 -4 20 -10 0
-5 9 -10 20 -10 11 0 20 -4 20 -10 0 -5 9 -10 20 -10 11 0 20 -4 20 -10 0 -5
7 -10 16 -10 20 0 44 -24 44 -44 0 -9 5 -16 10 -16 6 0 10 -35 9 -89 -1 -92 3
-106 54 -172 15 -20 27 -40 27 -43 0 -4 13 -21 30 -39 16 -18 30 -35 30 -39 0
-16 268 -278 283 -278 10 0 17 -8 17 -20 0 -12 7 -20 16 -20 9 0 30 -13 46
-30 15 -16 34 -30 41 -30 7 0 18 -9 25 -21 7 -11 19 -18 27 -15 9 3 12 0 8
-10 -3 -9 1 -14 12 -14 9 0 35 -13 58 -28 23 -15 53 -32 67 -38 14 -6 45 -21
68 -33 24 -11 52 -21 62 -21 11 0 22 -5 25 -10 8 -13 62 -13 70 0 3 6 -2 10
-12 10 -25 0 -127 35 -183 63 -57 28 -130 77 -182 122 -23 19 -45 35 -48 35
-4 0 -54 46 -111 103 -178 174 -352 396 -365 463 -3 19 1 79 11 134 16 100 16
101 -5 135 -25 41 -52 50 -122 42 -47 -6 -53 -4 -79 24 -39 42 -48 89 -20 107
32 22 26 32 -19 32 -51 0 -67 23 -76 112 -8 76 0 93 47 103 47 11 43 23 -14
49 -62 27 -77 54 -77 141 0 73 10 79 108 64 93 -14 118 -9 102 20 -23 44 -12
77 41 125 51 46 88 57 106 34 6 -7 23 -45 38 -84 15 -40 48 -98 73 -129 l45
-58 19 24 c10 13 32 44 49 69 l31 44 -25 129 c-20 100 -37 154 -76 236 -61
129 -67 152 -51 194 17 41 69 97 92 97 9 0 39 -7 65 -16z m-743 -979 c3 -9 0
-15 -9 -15 -9 0 -12 6 -9 15 4 8 7 15 9 15 2 0 5 -7 9 -15z m3086 0 c-14 -17
-48 -19 -70 -5 -11 8 -5 9 23 6 21 -2 40 1 43 5 3 5 8 9 11 9 3 0 0 -7 -7 -15z
m-3666 -3 c2 -4 -5 -9 -17 -9 -17 -2 -19 0 -7 7 18 12 18 12 24 2z m86 -4 c0
-8 -57 -4 -65 4 -3 3 11 4 30 4 19 -1 35 -4 35 -8z m54 4 c2 -4 -7 -9 -22 -10
-21 -1 -24 0 -12 8 18 12 27 12 34 2z m46 -2 c12 -7 10 -9 -8 -7 -12 0 -22 5
-22 9 0 11 12 10 30 -2z m3770 -30 c0 -11 -4 -20 -10 -20 -5 0 -10 9 -10 20 0
11 -4 20 -10 20 -5 0 -10 5 -10 10 0 7 6 7 20 0 11 -6 20 -20 20 -30z m100 30
c0 -5 -2 -10 -4 -10 -3 0 -8 5 -11 10 -3 6 -1 10 4 10 6 0 11 -4 11 -10z m142
-5 c-4 -5 -5 -18 -4 -27 2 -10 -2 -18 -7 -18 -6 0 -11 6 -11 14 0 8 -3 21 -6
30 -4 10 0 14 14 13 12 0 18 -6 14 -12z m-3685 -1 c-3 -3 -12 -4 -19 -1 -8 3
-5 6 6 6 11 1 17 -2 13 -5z m3083 -36 c0 -4 -4 -8 -9 -8 -6 0 -12 4 -15 8 -3
5 1 9 9 9 8 0 15 -4 15 -9z"/>
<path d="M2021 3448 c-56 -44 -106 -121 -128 -198 l-17 -63 27 -21 c39 -31
327 -179 334 -172 13 13 15 169 3 229 -7 34 -26 87 -42 117 -31 57 -104 140
-123 140 -6 0 -30 -15 -54 -32z"/>
<path d="M3031 3439 c-86 -90 -139 -242 -126 -365 4 -33 11 -67 15 -74 6 -9
46 8 159 66 83 44 162 88 176 99 24 20 25 21 12 75 -14 57 -38 109 -67 147
-26 34 -100 93 -116 93 -7 0 -31 -19 -53 -41z"/>
<path d="M2528 3338 c-107 -135 -167 -226 -173 -260 -15 -87 26 -168 106 -208
52 -27 177 -27 235 -1 82 37 128 130 108 216 -5 19 -52 93 -104 165 -109 149
-119 154 -172 88z m95 -53 c20 -29 37 -61 37 -69 0 -27 -38 -56 -74 -56 -36 0
-86 32 -86 56 0 15 70 123 80 123 3 0 22 -24 43 -54z m-75 -161 c46 -9 97 3
124 31 28 29 48 17 48 -29 0 -64 -55 -106 -140 -106 -28 0 -64 7 -80 15 -49
25 -77 104 -48 133 9 9 18 6 38 -13 14 -13 40 -28 58 -31z m-76 -117 c18 -13
48 -21 95 -24 81 -6 140 17 170 67 23 40 33 38 33 -7 0 -97 -72 -153 -195
-153 -115 0 -185 57 -185 151 0 49 9 54 34 17 11 -17 33 -40 48 -51z"/>
<path d="M1890 2800 l-43 -122 23 -46 c62 -130 270 -383 346 -422 16 -8 36
-23 46 -32 26 -26 126 -74 193 -93 44 -13 81 -16 144 -12 85 5 171 25 171 39
0 5 10 8 23 8 33 0 166 91 239 164 129 128 278 338 278 392 0 24 -67 223 -80
237 -4 5 -18 -4 -30 -20 -21 -27 -22 -33 -15 -156 5 -109 4 -132 -10 -153 -30
-46 -71 -29 -159 63 l-42 46 -75 -41 c-102 -56 -212 -85 -324 -86 -103 0 -182
21 -299 82 -39 20 -74 37 -77 37 -3 0 -37 -28 -74 -62 -50 -47 -75 -63 -96
-63 -46 0 -52 26 -47 176 l5 133 -27 26 -27 26 -43 -121z m400 -230 c0 -5 9
-10 20 -10 11 0 20 -4 20 -10 0 -5 18 -10 40 -10 22 0 40 -4 40 -10 0 -6 27
-10 60 -10 33 0 60 -4 60 -10 0 -5 18 -10 40 -10 22 0 40 5 40 10 0 6 27 10
60 10 33 0 60 4 60 10 0 6 18 10 40 10 22 0 40 5 40 10 0 6 18 10 40 10 22 0
40 5 40 10 0 6 27 10 60 10 33 0 60 -4 60 -10 0 -5 9 -10 20 -10 13 0 20 -7
20 -20 0 -11 6 -20 14 -20 18 0 26 -22 26 -76 0 -31 -4 -44 -14 -44 -7 0 -20
-10 -29 -22 -26 -39 -127 -138 -141 -138 -8 0 -24 -13 -37 -30 -13 -16 -32
-30 -41 -30 -10 0 -18 -4 -18 -10 0 -5 -9 -10 -20 -10 -11 0 -20 -4 -20 -10 0
-5 -9 -10 -20 -10 -11 0 -20 -4 -20 -10 0 -5 -18 -10 -40 -10 -22 0 -40 -4
-40 -10 0 -6 -27 -10 -60 -10 -33 0 -60 4 -60 10 0 6 -18 10 -40 10 -22 0 -40
5 -40 10 0 6 -7 10 -15 10 -20 0 -105 42 -105 52 0 4 -6 8 -14 8 -8 0 -30 14
-48 30 -18 17 -36 30 -40 30 -11 0 -78 69 -78 81 0 4 -9 13 -20 19 -11 6 -20
17 -20 25 0 8 -9 15 -20 15 -18 0 -20 7 -20 60 0 47 3 60 15 60 9 0 25 9 37
20 12 11 28 20 35 20 7 0 13 5 13 10 0 6 27 10 60 10 33 0 60 -4 60 -10z"/>
</g>
</svg>
